<?xml version="1.0" encoding="utf-8"?>
<!-- Generator: Adobe Illustrator 21.0.2, SVG Export Plug-In . SVG Version: 6.00 Build 0)  -->
<svg version="1.1" id="Layer_1" xmlns="http://www.w3.org/2000/svg" xmlns:xlink="http://www.w3.org/1999/xlink" x="0px" y="0px"
	 width="1626.4px" height="242.3px" viewBox="0 0 1626.4 242.3" style="enable-background:new 0 0 1626.4 242.3;"
	 xml:space="preserve">
<style type="text/css">
	.st0{fill:#FFFFFF;}
</style>
<polygon class="st0" points="0,13.7 0,46.9 47,46.9 47,161.2 85,161.2 85,46.9 131.8,46.9 131.8,13.7 "/>
<polygon class="st0" points="261.5,161.1 261.5,128 191.4,128 191.4,103 259.9,103 259.9,69.9 191.4,69.9 191.4,46.9 261.5,46.9 
	261.5,13.7 153.4,13.7 153.4,161.1 "/>
<g>
	<path class="st0" d="M358.4,163.8c35.6,0,54.8-20.6,64.3-39.6L390,108.8c-4.9,11.7-17.5,21.4-31.6,21.4
		c-24.1,0-41.1-18.6-41.1-42.7s17-42.7,41.1-42.7c14.1,0,26.7,9.7,31.6,21.4l32.7-15.5c-9.7-19.4-28.7-39.6-64.3-39.6
		c-45.3,0-79.8,30.7-79.8,76.2C278.6,132.9,313.1,163.8,358.4,163.8"/>
</g>
<polygon class="st0" points="577.1,161.1 577.1,13.7 539,13.7 539,68.8 477.8,68.8 477.8,13.7 439.8,13.7 439.8,161.1 477.8,161.1 
	477.8,101.9 539,101.9 539,161.1 "/>
<g>
	<path class="st0" d="M877.6,128h-23.9V46.9h24.1c27,0,40.7,17.7,40.7,40.4C918.5,109.2,903.4,128,877.6,128 M877.8,161.1
		c46.2,0,79.6-28.1,79.6-73.8S924,13.7,877.6,13.7h-61.9v147.4H877.8z"/>
</g>
<rect x="1128.9" y="13.7" class="st0" width="38" height="147.4"/>
<g>
	<path class="st0" d="M1252.9,163.8c39.6,0,61.4-19.7,61.4-49.3c0-54.8-83.3-41.1-83.3-59.9c0-6.2,4.9-10.6,15.9-10.6
		c14.6,0,30.7,5.1,43.1,15.2l20.8-27.2c-15.7-13.5-36.2-20.6-59.9-20.6c-37.8,0-58.8,22.1-58.8,46.9c0,56.8,83.5,40.7,83.5,60.8
		c0,7.1-8,12.2-21,12.2c-20.1,0-36.5-8.8-47.1-19.4l-20.1,28.5C1202.3,154.5,1223.1,163.8,1252.9,163.8"/>
	<path class="st0" d="M1405.9,130.2c-24.5,0-40.2-18.8-40.2-42.7c0-24.1,15.7-42.7,40.2-42.7c24.3,0,40,18.6,40,42.7
		C1445.9,111.4,1430.2,130.2,1405.9,130.2 M1405.9,163.8c45.1,0,78.7-31.4,78.7-76.2s-33.6-76.2-78.7-76.2
		c-45.1,0-78.9,31.4-78.9,76.2S1360.9,163.8,1405.9,163.8"/>
	<path class="st0" d="M1568.7,78.5h-30.1V46.9h30.1c9.9,0,18.3,5.7,18.3,15.7C1587.1,73,1578.7,78.5,1568.7,78.5 M1626.4,161.1
		l-30.1-54.1c13.7-4.9,29.4-18.6,29.4-44.2c0-27.4-18.6-49.1-51.3-49.1h-73.8v147.4h38v-49.5h19.4l24.8,49.5H1626.4z"/>
</g>
<polygon class="st0" points="721.2,0 639.9,161.3 683,161.3 721.3,83.5 759.6,161.3 802.7,161.3 "/>
<polygon class="st0" points="1070.5,13.7 1032.2,91.5 993.9,13.7 950.8,13.7 1032,175.1 1113.6,13.7 "/>
<g>
	<polygon class="st0" points="1206.7,191.7 1250.4,191.7 1250.4,197.6 1213.5,197.6 1213.5,213.5 1249,213.5 1249,219.3 
		1213.5,219.3 1213.5,241 1206.7,241 	"/>
	<g>
		<path class="st0" d="M1260.4,191.7h33.5c4.3,0.1,9.6,0.1,13.8,4c1.6,1.4,4.4,4.6,4.4,10.5c0,11.8-10,13.4-13.3,13.9L1317,241h-9.1
			l-16.7-19.7h-23.8V241h-7V191.7z M1267.3,197.6v17.9h24.3c3.8,0,8.7-0.1,11.5-3.8c1.3-1.6,1.7-3.5,1.7-5.2c0-1.9-0.5-3.8-1.5-5.2
			c-2.2-3.6-5.8-3.6-9-3.6H1267.3z"/>
		<path class="st0" d="M1381.6,217c0,16.8-13.8,25.2-29.6,25.2c-7.2,0-14.4-1.3-20.2-5.4c-4.8-3.3-10-9.5-10-19.9
			c0-18.2,15-26.4,29.7-26.4C1368.7,190.6,1381.6,200.7,1381.6,217 M1328.8,216.6c0,3.8,1,8.8,4.3,12.6c4.6,5.4,11.8,7.1,18.9,7.1
			c18.2,0,22.6-11.5,22.6-19.9c0-13-10.4-20.2-23.9-19.8C1340.5,196.8,1328.8,202,1328.8,216.6"/>
		<path class="st0" d="M1392.6,191.7h9.6l15.3,32.1c2.4,5.3,2.9,6.3,4.7,11c1.7-4.7,2.2-5.9,4.5-10.8l15.6-32.3h9.5V241h-6.6v-28.3
			c0-9.4,0.1-11,0.6-15.1c-1.4,3.8-1.8,4.7-3.7,8.6l-16.8,34.7h-6.4l-15.4-31.9c-2.7-5.6-3.4-7.1-5-11.2c0.4,3.8,0.4,4.7,0.6,12.5
			V241h-6.6V191.7z"/>
		<rect x="1488.5" y="191.7" class="st0" width="7.2" height="49.2"/>
		<path class="st0" d="M1510.4,191.7h24.5c5.7,0,12.3,0.1,18.8,5.4c4,3.3,8.2,9.3,8.2,18.8c0,9.1-4,15-6.9,17.9
			c-6.9,6.8-16.5,7-24.8,7h-19.7V191.7z M1517.5,197.5V235h14.4c6.2,0,13.9-0.2,19.1-6.9c2.8-3.6,3.8-8.2,3.8-12.3
			c0-6.6-2.6-11.1-5.2-13.6c-4.7-4.6-10.2-4.6-14.6-4.7H1517.5z"/>
		<path class="st0" d="M1620.1,234.3c-0.9,0.8-1.7,1.6-2.7,2.4c-3.6,2.7-10.4,5.4-18.8,5.4c-17,0-28.2-11.8-28.2-25.9
			c0-6.9,2.9-12,4.3-14.1c4.6-6.7,13.7-11.6,25.1-11.6c11.4,0,18.6,4.7,21.3,7c2.7,2.3,3.8,4.3,4.8,6l-6.9,2.1
			c-0.9-1.3-1.6-2.4-3.1-3.7c-4.2-3.6-9.9-5.4-15.5-5.4c-12.1,0-22.5,6.8-22.5,19.2c0,5.1,1.9,9.2,3.3,11.4c5.4,8.3,15.7,9,18.9,9
			c4.7,0,11.6-1.5,16.2-6.5c3.1-3.3,3.5-6.1,3.9-8.9h-21.7V215h27.6v26h-6.1V234.3z"/>
	</g>
</g>
</svg>
