<svg xmlns="http://www.w3.org/2000/svg" viewBox="0 0 234.68 35.65"><g data-name="Layer 2"><path d="M230.58 3.39a.44.44 0 01.15.42.42.42 0 01-.15.37c-.28.22-1.06.12-1.06.12v-1a2.84 2.84 0 011.06.09zm1.6 3.72l-.9-2.05a1.2 1.2 0 00.53-.48 1.41 1.41 0 00.25-.77 1.6 1.6 0 00-.22-.79 1.48 1.48 0 00-.56-.58 2.15 2.15 0 00-.9-.2h-2.17v4.87h1.31V5.28h.42l.73 1.83zm.91-3.82a3.74 3.74 0 01.26 1.39 3.65 3.65 0 01-.44 1.76 3.2 3.2 0 01-1.2 1.22 3.44 3.44 0 01-1.71.42 3.48 3.48 0 01-1.7-.42 3.56 3.56 0 01-1.22-1.22 3.58 3.58 0 01-.42-1.76 3.29 3.29 0 01.42-1.78 3.22 3.22 0 011.21-1.22 3.62 3.62 0 011.71-.43 3.31 3.31 0 011.32.26 3.4 3.4 0 011.09.72 2.73 2.73 0 01.68 1.06zm1.22 3.18a4.57 4.57 0 00-1-5.08 4.35 4.35 0 00-1.49-1A4.46 4.46 0 00230 0a4.38 4.38 0 00-1.79.37 5.13 5.13 0 00-1.51 1 4.71 4.71 0 00-1 1.53 4.56 4.56 0 000 3.6 4.16 4.16 0 001 1.51 4.45 4.45 0 001.51 1 4.39 4.39 0 001.79.38 4.34 4.34 0 001.8-.39 4.57 4.57 0 001.49-1 4.8 4.8 0 001-1.51zM43.08 12.6a7.52 7.52 0 017.52 7.53 7.52 7.52 0 11-7.52-7.53zm0-8A15.52 15.52 0 1058.6 20.13 15.52 15.52 0 0043.08 4.61zm169.24 15.3H217l-2.34-7.64zm9.5 15.74l-2.48-8.1H210l-2.49 8.1h-8L207.37 10q1.59-5.46 7.3-5.46A6.93 6.93 0 01222 10l7.85 25.61zm-31.34 0V4.6h7.62v31zM169 12.26V28q11 0 11.05-7.93c0-5.2-3.69-7.82-11.05-7.82zm0-7.69q18.87 0 18.86 15.51T169 35.65h-7.81V4.57zM154.26 23.9h-9.09V28h13.35v7.64h-13.45c-5 0-7.56-2.55-7.56-7.64V4.57h21v7.68h-13.34v4h9.09zM119.8 12.16v7.66c5.25 0 7.89-1.28 7.89-3.82s-2.62-3.84-7.89-3.84zM112 4.57h10.1q13.42 0 13.43 11.44t-12.9 11.46h-2.83v8.18H112zm-26.93 0h24.41v7.66h-8.38v23.42h-7.63V12.28h-8.39zm-24.15 31V12.18a7.52 7.52 0 017.83-7.69H83v7.69H68.74v4h10.81v7.72H68.74v11.75zM0 28v7.64a84.12 84.12 0 0011.62-.7 34.8 34.8 0 006.18-1.4A19 19 0 0021.3 32a10.11 10.11 0 003.7-3.62 9.26 9.26 0 00.94-2.22l.26-2.22a8.42 8.42 0 00-.34-2.36 8.62 8.62 0 00-.9-2A8.73 8.73 0 0022.34 17a15.8 15.8 0 00-2.52-1.3q-1.35-.49-4.23-1.32c-1.27-.36-2.17-.62-2.7-.82a9 9 0 01-1.45-.6 2.15 2.15 0 01-.64-.4c-.16-.11-.22-.2-.22-.3H24.2V4.6H10.64a7.37 7.37 0 00-7.16 4.48q-2.28 4.77 1.67 8.68a10.42 10.42 0 002.64 1.91 25.07 25.07 0 004.67 1.74c2.15.63 3.19.92 3.07.88a14.48 14.48 0 011.72.64l.81.42c.35.25.43.66.23 1.24a3.83 3.83 0 01-1 .87 16 16 0 01-5.57 1.73A68.73 68.73 0 010 28z" data-name="Layer 4" fill="#fff"/></g></svg>