<svg xmlns="http://www.w3.org/2000/svg" height="25" width="271"><path d="M2 22.5H0L7.6 4.4h1.7l7.6 18.1h-2L13 17.8H3.9zm2.6-6.4h7.8l-4-9.6zM22.1 4.4H28c1.1 0 2.2.2 3.3.6 1.1.4 2.1.9 3 1.7.9.8 1.6 1.7 2.2 2.9.5 1.1.8 2.5.8 4s-.3 2.9-.8 4-1.3 2.1-2.2 2.8c-.9.8-1.9 1.3-3 1.7-1.1.4-2.2.6-3.3.6h-5.9zM24 20.9h3.5c1.3 0 2.5-.2 3.5-.6 1-.4 1.8-1 2.5-1.7s1.1-1.5 1.5-2.4c.3-.9.5-1.8.5-2.7 0-.9-.2-1.9-.5-2.7-.3-.9-.8-1.7-1.5-2.4S32 7.1 31 6.7c-1-.4-2.2-.6-3.5-.6H24zM43.6 4.4h5.9c1.1 0 2.2.2 3.3.6 1.1.4 2.1.9 3 1.7.9.8 1.6 1.7 2.2 2.9.6 1.2.8 2.5.8 4s-.3 2.9-.8 4-1.3 2.1-2.2 2.8c-.9.8-1.9 1.3-3 1.7-1.1.4-2.2.6-3.3.6h-5.9zm1.8 16.5H49c1.3 0 2.5-.2 3.5-.6 1-.4 1.8-1 2.5-1.7s1.1-1.5 1.5-2.4c.3-.9.5-1.8.5-2.7 0-.9-.2-1.9-.5-2.7-.3-.9-.8-1.7-1.5-2.4s-1.5-1.3-2.5-1.7c-1-.4-2.2-.6-3.5-.6h-3.5v14.8zm22.3 1.6h-1.8V4.4h1.8zm22.9-2.9c-.3.5-.7.9-1.1 1.3-.4.4-.9.8-1.5 1.1-.5.3-1.2.6-1.9.8-.5.1-1.2.2-2.1.2-1.3 0-2.5-.2-3.7-.7-1.1-.5-2.1-1.1-2.9-2-.8-.8-1.5-1.9-1.9-3-.5-1.1-.7-2.4-.7-3.8s.2-2.7.7-3.8c.5-1.1 1.1-2.2 1.9-3 .8-.8 1.8-1.5 2.9-2 1.1-.5 2.4-.7 3.7-.7.7 0 1.3.1 1.9.2.6.1 1.2.3 1.7.6.5.2 1 .6 1.5.9.5.4.8.8 1.1 1.2L88.8 8c-.2-.3-.4-.6-.7-.9-.3-.3-.7-.6-1.1-.8-.4-.2-.8-.4-1.3-.6-.5-.1-1-.2-1.6-.2-1.2 0-2.2.2-3.1.6-.9.4-1.7 1-2.3 1.7-.6.7-1.1 1.5-1.4 2.5-.3.9-.5 1.9-.5 3s.2 2.1.5 3c.3 1 .8 1.8 1.5 2.5.6.7 1.4 1.3 2.3 1.7.9.4 1.9.6 3 .6 1 0 2-.2 2.9-.6.9-.4 1.7-1.1 2.3-2.1zm12 2.9h-1.8V6.1h-5.9V4.4h13.6V6h-5.9zm14.5 0h-1.8V4.4h1.8zm14.3-2.3l5.7-15.7h1.9l-6.7 18.1h-1.9l-6.7-18.1h1.9zm16.2.7h9.4v1.6h-11.2V4.4h10.9V6h-9.1v6.2h8.5v1.6h-8.5zm25.6-12.6v14.4H169V8.3h-5V4.5h14.2v3.8zm11.9 14.3V4.5h4.3v18.1zm26.3-12.5c0 1.1-.2 1.9-.6 2.7-.4.7-.9 1.3-1.5 1.7-.7.4-1.4.8-2.2 1-.8.2-1.7.3-2.6.3h-2.1v6.8H198V4.5h6.5c1 0 1.8.1 2.7.3.8.2 1.6.5 2.2 1 .6.4 1.1 1 1.5 1.7.3.7.5 1.6.5 2.6zm-4.3 0c0-.4-.1-.8-.2-1-.2-.3-.4-.5-.7-.6-.3-.2-.6-.2-1-.3-.3 0-.7-.1-1.1-.1h-1.9v4.3h1.8c.4 0 .8 0 1.2-.1.4-.1.7-.2 1-.4.3-.2.5-.4.7-.7.1-.3.2-.7.2-1.1zm21.1-.9c-.4-.5-.8-.9-1.4-1.1-.6-.3-1.2-.4-1.7-.4-.3 0-.6 0-.8.1-.3 0-.5.2-.8.3-.2.2-.4.3-.6.6-.2.2-.2.5-.2.9 0 .3.1.6.2.8.1.2.3.4.5.6.2.2.5.3.8.4.3.1.7.3 1.1.4.6.2 1.2.4 1.8.7.7.2 1.2.6 1.8 1 .5.4 1 .9 1.3 1.5.3.6.5 1.3.5 2.3 0 1-.2 1.9-.6 2.7-.4.8-.9 1.4-1.5 1.9s-1.3.9-2.2 1.1c-.8.2-1.7.4-2.5.4-1.3 0-2.5-.2-3.7-.7-1.2-.5-2.2-1.1-2.9-1.9l2.8-2.9c.4.6 1 1 1.7 1.4.7.4 1.4.6 2.1.6.3 0 .6 0 .9-.1.3-.1.6-.2.8-.3.2-.2.4-.4.5-.6.1-.2.2-.6.2-.9 0-.4-.1-.6-.2-.9-.2-.2-.4-.5-.7-.6-.3-.2-.7-.4-1.2-.6-.5-.2-1-.3-1.5-.5-.6-.2-1.1-.4-1.7-.7-.5-.3-1-.6-1.4-1-.4-.4-.8-.9-1-1.5-.3-.6-.4-1.3-.4-2.1 0-1 .2-1.9.6-2.6.4-.7.9-1.3 1.6-1.8.7-.5 1.4-.8 2.2-1 .8-.2 1.6-.3 2.5-.3 1 0 2 .2 3 .6 1 .4 1.9.9 2.7 1.7zm42.8 3.3V25h-12.5c-6.9 0-12.5-5.6-12.5-12.5S251.6 0 258.5 0 271 5.6 271 12.5zm-7-1.6h-3.9V7h-3.2v3.9H253v3.2h3.9V18h3.2v-3.9h3.9z" fill="#fff"/></svg>